<svg xmlns="http://www.w3.org/2000/svg" width="25" height="25" viewBox="0 0 25 25">
  <path id="Icon_awesome-plus-circle" data-name="Icon awesome-plus-circle" d="M13.063.563a12.5,12.5,0,1,0,12.5,12.5A12.5,12.5,0,0,0,13.063.563Zm7.258,13.911a.607.607,0,0,1-.6.6H15.079v4.637a.607.607,0,0,1-.6.6H11.651a.607.607,0,0,1-.6-.6V15.079H6.409a.607.607,0,0,1-.6-.6V11.651a.607.607,0,0,1,.6-.6h4.637V6.409a.607.607,0,0,1,.6-.6h2.823a.607.607,0,0,1,.6.6v4.637h4.637a.607.607,0,0,1,.6.6Z" transform="translate(-0.563 -0.563)" fill="#B70000"/>
</svg>
